Genre:Action | Crime | Thriller
Language:English
 
http://www.imdb.com/title/tt1640459/

Source:LIMITED.720p.BluRay.x264-AMIABLE Thanks!
Subtitles:Romana

Format : AVI
Format/Info : Audio Video Interleave
File size : 1.17 GiB
Duration : 1h 26mn
Overall bit rate : 1 955 Kbps

Video
ID : 0
Format : MPEG-4 Visual
Format profile : Advanced Simple@L5
Format settings, BVOP : Yes
Format settings, QPel : No
Format settings, GMC : No warppoints
Format settings, Matrix : Default (H.263)
Codec ID : XVID
Codec ID/Hint : XviD
Duration : 1h 26mn
Bit rate : 1 498 Kbps
Width : 720 pixels
Height : 304 pixels
Display aspect ratio : 2.35:1
Frame rate : 23.976 fps
Color space : YUV
Chroma subsampling : 4:2:0
Bit depth : 8 bits
Scan type : Progressive
Bits/(Pixel*Frame) : 0.285
Stream size : 921 MiB (77%)
Writing library : XviD 1.2.1 (UTC 2008-12-04)

Audio
ID : 1
Format : AC-3
Format/Info : Audio Coding 3
Mode extension : CM (complete main)
Codec ID : 2000
Duration : 1h 26mn
Bit rate mode : Constant
Bit rate : 448 Kbps
Channel(s) : 6 channels
Channel positions : Front: L C R, Side: L R, LFE
Sampling rate : 48.0 KHz
Bit depth : 16 bits
Stream size : 276 MiB (23%)
Alignment : Aligned on interleaves
Interleave, duration : 42 ms (1.00 video frame)
Interleave, preload duration : 512 ms


Plot:
A homeless vigilante blows away crooked cops, pedophile Santas, and other scumbags with his trusty pump-action shotgun.
 
http://leetleech.org/images/31765793714731934062.png
 
http://leetleech.org/images/22417468890030729441.png
 
http://leetleech.org/images/72307691562641841370.png
 
http://leetleech.org/images/32432587352968345240.png
 
http://leetleech.org/images/61843178580628489204.png